<mxfile host="app.diagrams.net" agent="Mozilla/5.0 (Windows NT 10.0; Win64; x64) AppleWebKit/537.36 (KHTML, like Gecko) Chrome/131.0.0.0 Safari/537.36" version="26.0.5">
  <diagram id="R2lEEEUBdFMjLlhIrx00" name="Page-1">
    <mxGraphModel dx="1591" dy="1806" grid="1" gridSize="10" guides="1" tooltips="1" connect="1" arrows="1" fold="1" page="1" pageScale="1" pageWidth="850" pageHeight="1100" math="0" shadow="0" extFonts="Permanent Marker^https://fonts.googleapis.com/css?family=Permanent+Marker">
      <root>
        <mxCell id="0" />
        <mxCell id="1" parent="0" />
        <object label="Player" Player="" id="_2EkybZ1yRrgaBxRLBCb-1">
          <mxCell style="whiteSpace=wrap;html=1;align=center;" vertex="1" parent="1">
            <mxGeometry x="200" y="200" width="100" height="40" as="geometry" />
          </mxCell>
        </object>
        <mxCell id="_2EkybZ1yRrgaBxRLBCb-2" value="Manager" style="whiteSpace=wrap;html=1;align=center;" vertex="1" parent="1">
          <mxGeometry x="490" y="200" width="100" height="40" as="geometry" />
        </mxCell>
        <mxCell id="_2EkybZ1yRrgaBxRLBCb-3" value="President" style="whiteSpace=wrap;html=1;align=center;" vertex="1" parent="1">
          <mxGeometry x="810" y="200" width="100" height="40" as="geometry" />
        </mxCell>
        <mxCell id="_2EkybZ1yRrgaBxRLBCb-4" value="Physiotherapist" style="whiteSpace=wrap;html=1;align=center;" vertex="1" parent="1">
          <mxGeometry x="200" y="-80" width="100" height="40" as="geometry" />
        </mxCell>
        <mxCell id="_2EkybZ1yRrgaBxRLBCb-5" value="Scout" style="whiteSpace=wrap;html=1;align=center;" vertex="1" parent="1">
          <mxGeometry x="200" y="450" width="100" height="40" as="geometry" />
        </mxCell>
        <mxCell id="_2EkybZ1yRrgaBxRLBCb-6" value="Director" style="whiteSpace=wrap;html=1;align=center;" vertex="1" parent="1">
          <mxGeometry x="490" y="320" width="100" height="40" as="geometry" />
        </mxCell>
        <mxCell id="_2EkybZ1yRrgaBxRLBCb-13" value="Tracks" style="shape=rhombus;perimeter=rhombusPerimeter;whiteSpace=wrap;html=1;align=center;" vertex="1" parent="1">
          <mxGeometry x="190" y="370" width="120" height="60" as="geometry" />
        </mxCell>
        <mxCell id="_2EkybZ1yRrgaBxRLBCb-14" value="Manages" style="shape=rhombus;perimeter=rhombusPerimeter;whiteSpace=wrap;html=1;align=center;" vertex="1" parent="1">
          <mxGeometry x="350" y="190" width="90" height="60" as="geometry" />
        </mxCell>
        <mxCell id="_2EkybZ1yRrgaBxRLBCb-15" value="Recommends" style="shape=rhombus;perimeter=rhombusPerimeter;whiteSpace=wrap;html=1;align=center;" vertex="1" parent="1">
          <mxGeometry x="480" y="410" width="120" height="60" as="geometry" />
        </mxCell>
        <mxCell id="_2EkybZ1yRrgaBxRLBCb-16" value="Treats" style="shape=rhombus;perimeter=rhombusPerimeter;whiteSpace=wrap;html=1;align=center;" vertex="1" parent="1">
          <mxGeometry x="190" y="-10" width="120" height="60" as="geometry" />
        </mxCell>
        <mxCell id="_2EkybZ1yRrgaBxRLBCb-17" value="Supervise" style="shape=rhombus;perimeter=rhombusPerimeter;whiteSpace=wrap;html=1;align=center;" vertex="1" parent="1">
          <mxGeometry x="670" y="190" width="90" height="60" as="geometry" />
        </mxCell>
        <mxCell id="_2EkybZ1yRrgaBxRLBCb-18" value="Jersey" style="ellipse;whiteSpace=wrap;html=1;align=center;fontStyle=4;" vertex="1" parent="1">
          <mxGeometry x="40" y="200" width="80" height="40" as="geometry" />
        </mxCell>
        <mxCell id="_2EkybZ1yRrgaBxRLBCb-19" value="Name" style="ellipse;whiteSpace=wrap;html=1;align=center;" vertex="1" parent="1">
          <mxGeometry x="40" y="250" width="80" height="40" as="geometry" />
        </mxCell>
        <mxCell id="_2EkybZ1yRrgaBxRLBCb-20" value="Injury" style="ellipse;whiteSpace=wrap;html=1;align=center;" vertex="1" parent="1">
          <mxGeometry x="40" y="150" width="80" height="40" as="geometry" />
        </mxCell>
        <mxCell id="_2EkybZ1yRrgaBxRLBCb-21" value="Salary" style="ellipse;whiteSpace=wrap;html=1;align=center;" vertex="1" parent="1">
          <mxGeometry x="40" y="100" width="80" height="40" as="geometry" />
        </mxCell>
        <mxCell id="_2EkybZ1yRrgaBxRLBCb-22" value="Position" style="ellipse;whiteSpace=wrap;html=1;align=center;" vertex="1" parent="1">
          <mxGeometry x="40" y="300" width="80" height="40" as="geometry" />
        </mxCell>
        <mxCell id="_2EkybZ1yRrgaBxRLBCb-23" value="Performance" style="ellipse;whiteSpace=wrap;html=1;align=center;" vertex="1" parent="1">
          <mxGeometry x="40" y="350" width="80" height="40" as="geometry" />
        </mxCell>
        <mxCell id="_2EkybZ1yRrgaBxRLBCb-24" value="Bonus" style="ellipse;whiteSpace=wrap;html=1;align=center;" vertex="1" parent="1">
          <mxGeometry x="40" y="50" width="80" height="40" as="geometry" />
        </mxCell>
        <mxCell id="_2EkybZ1yRrgaBxRLBCb-25" value="PhyID" style="ellipse;whiteSpace=wrap;html=1;align=center;fontStyle=4;" vertex="1" parent="1">
          <mxGeometry x="210" y="-140" width="80" height="40" as="geometry" />
        </mxCell>
        <mxCell id="_2EkybZ1yRrgaBxRLBCb-26" value="Salary" style="ellipse;whiteSpace=wrap;html=1;align=center;" vertex="1" parent="1">
          <mxGeometry x="310" y="-120" width="80" height="40" as="geometry" />
        </mxCell>
        <mxCell id="_2EkybZ1yRrgaBxRLBCb-27" value="Name" style="ellipse;whiteSpace=wrap;html=1;align=center;" vertex="1" parent="1">
          <mxGeometry x="110" y="-120" width="80" height="40" as="geometry" />
        </mxCell>
        <mxCell id="_2EkybZ1yRrgaBxRLBCb-28" value="Experties" style="ellipse;whiteSpace=wrap;html=1;align=center;" vertex="1" parent="1">
          <mxGeometry x="110" y="-70" width="80" height="40" as="geometry" />
        </mxCell>
        <mxCell id="_2EkybZ1yRrgaBxRLBCb-29" value="Experience" style="ellipse;whiteSpace=wrap;html=1;align=center;" vertex="1" parent="1">
          <mxGeometry x="310" y="-70" width="80" height="40" as="geometry" />
        </mxCell>
        <mxCell id="_2EkybZ1yRrgaBxRLBCb-30" value="MID" style="ellipse;whiteSpace=wrap;html=1;align=center;fontStyle=4;" vertex="1" parent="1">
          <mxGeometry x="500" y="70" width="80" height="40" as="geometry" />
        </mxCell>
        <mxCell id="_2EkybZ1yRrgaBxRLBCb-31" value="Name" style="ellipse;whiteSpace=wrap;html=1;align=center;" vertex="1" parent="1">
          <mxGeometry x="425" y="120" width="80" height="40" as="geometry" />
        </mxCell>
        <mxCell id="_2EkybZ1yRrgaBxRLBCb-32" value="Salary" style="ellipse;whiteSpace=wrap;html=1;align=center;" vertex="1" parent="1">
          <mxGeometry x="590" y="90" width="80" height="40" as="geometry" />
        </mxCell>
        <mxCell id="_2EkybZ1yRrgaBxRLBCb-33" value="Experience" style="ellipse;whiteSpace=wrap;html=1;align=center;" vertex="1" parent="1">
          <mxGeometry x="590" y="140" width="80" height="40" as="geometry" />
        </mxCell>
        <mxCell id="_2EkybZ1yRrgaBxRLBCb-34" value="Name" style="ellipse;whiteSpace=wrap;html=1;align=center;" vertex="1" parent="1">
          <mxGeometry x="960" y="170" width="80" height="40" as="geometry" />
        </mxCell>
        <mxCell id="_2EkybZ1yRrgaBxRLBCb-35" value="PID" style="ellipse;whiteSpace=wrap;html=1;align=center;fontStyle=4;" vertex="1" parent="1">
          <mxGeometry x="960" y="230" width="80" height="40" as="geometry" />
        </mxCell>
        <mxCell id="_2EkybZ1yRrgaBxRLBCb-36" value="DID" style="ellipse;whiteSpace=wrap;html=1;align=center;fontStyle=4;" vertex="1" parent="1">
          <mxGeometry x="620" y="320" width="80" height="40" as="geometry" />
        </mxCell>
        <mxCell id="_2EkybZ1yRrgaBxRLBCb-37" value="Strategy" style="ellipse;whiteSpace=wrap;html=1;align=center;" vertex="1" parent="1">
          <mxGeometry x="620" y="370" width="80" height="40" as="geometry" />
        </mxCell>
        <mxCell id="_2EkybZ1yRrgaBxRLBCb-38" value="Name" style="ellipse;whiteSpace=wrap;html=1;align=center;" vertex="1" parent="1">
          <mxGeometry x="620" y="270" width="80" height="40" as="geometry" />
        </mxCell>
        <mxCell id="_2EkybZ1yRrgaBxRLBCb-39" value="SID" style="ellipse;whiteSpace=wrap;html=1;align=center;fontStyle=4;" vertex="1" parent="1">
          <mxGeometry x="210" y="530" width="80" height="40" as="geometry" />
        </mxCell>
        <mxCell id="_2EkybZ1yRrgaBxRLBCb-40" value="Name" style="ellipse;whiteSpace=wrap;html=1;align=center;" vertex="1" parent="1">
          <mxGeometry x="100" y="510" width="80" height="40" as="geometry" />
        </mxCell>
        <mxCell id="_2EkybZ1yRrgaBxRLBCb-41" value="Region" style="ellipse;whiteSpace=wrap;html=1;align=center;" vertex="1" parent="1">
          <mxGeometry x="320" y="510" width="80" height="40" as="geometry" />
        </mxCell>
        <mxCell id="_2EkybZ1yRrgaBxRLBCb-54" value="" style="endArrow=none;html=1;rounded=0;" edge="1" parent="1">
          <mxGeometry relative="1" as="geometry">
            <mxPoint x="440" y="220" as="sourcePoint" />
            <mxPoint x="490" y="220" as="targetPoint" />
          </mxGeometry>
        </mxCell>
        <mxCell id="_2EkybZ1yRrgaBxRLBCb-55" value="1..M" style="resizable=0;html=1;whiteSpace=wrap;align=right;verticalAlign=bottom;" connectable="0" vertex="1" parent="_2EkybZ1yRrgaBxRLBCb-54">
          <mxGeometry x="1" relative="1" as="geometry" />
        </mxCell>
        <mxCell id="_2EkybZ1yRrgaBxRLBCb-56" value="" style="endArrow=none;html=1;rounded=0;" edge="1" parent="1">
          <mxGeometry relative="1" as="geometry">
            <mxPoint x="300" y="220" as="sourcePoint" />
            <mxPoint x="350" y="220" as="targetPoint" />
          </mxGeometry>
        </mxCell>
        <mxCell id="_2EkybZ1yRrgaBxRLBCb-57" value="1..1" style="resizable=0;html=1;whiteSpace=wrap;align=right;verticalAlign=bottom;" connectable="0" vertex="1" parent="_2EkybZ1yRrgaBxRLBCb-56">
          <mxGeometry x="1" relative="1" as="geometry" />
        </mxCell>
        <mxCell id="_2EkybZ1yRrgaBxRLBCb-79" value="" style="endArrow=none;html=1;rounded=0;entryX=0.5;entryY=0;entryDx=0;entryDy=0;" edge="1" parent="1" target="_2EkybZ1yRrgaBxRLBCb-1">
          <mxGeometry relative="1" as="geometry">
            <mxPoint x="250" y="50" as="sourcePoint" />
            <mxPoint x="300" y="90" as="targetPoint" />
          </mxGeometry>
        </mxCell>
        <mxCell id="_2EkybZ1yRrgaBxRLBCb-80" value="1..M" style="resizable=0;html=1;whiteSpace=wrap;align=right;verticalAlign=bottom;" connectable="0" vertex="1" parent="_2EkybZ1yRrgaBxRLBCb-79">
          <mxGeometry x="1" relative="1" as="geometry">
            <mxPoint x="30" as="offset" />
          </mxGeometry>
        </mxCell>
        <mxCell id="_2EkybZ1yRrgaBxRLBCb-81" value="" style="endArrow=none;html=1;rounded=0;entryX=0.5;entryY=0;entryDx=0;entryDy=0;exitX=0.5;exitY=1;exitDx=0;exitDy=0;" edge="1" parent="1" source="_2EkybZ1yRrgaBxRLBCb-4" target="_2EkybZ1yRrgaBxRLBCb-16">
          <mxGeometry relative="1" as="geometry">
            <mxPoint x="50" y="-20" as="sourcePoint" />
            <mxPoint x="210" y="-20" as="targetPoint" />
          </mxGeometry>
        </mxCell>
        <mxCell id="_2EkybZ1yRrgaBxRLBCb-82" value="1..M" style="resizable=0;html=1;whiteSpace=wrap;align=right;verticalAlign=bottom;" connectable="0" vertex="1" parent="_2EkybZ1yRrgaBxRLBCb-81">
          <mxGeometry x="1" relative="1" as="geometry">
            <mxPoint x="30" y="-10" as="offset" />
          </mxGeometry>
        </mxCell>
        <mxCell id="_2EkybZ1yRrgaBxRLBCb-83" value="" style="endArrow=none;html=1;rounded=0;exitX=1;exitY=0.5;exitDx=0;exitDy=0;entryX=0.5;entryY=0;entryDx=0;entryDy=0;" edge="1" parent="1" source="_2EkybZ1yRrgaBxRLBCb-27" target="_2EkybZ1yRrgaBxRLBCb-4">
          <mxGeometry relative="1" as="geometry">
            <mxPoint x="140" y="-230" as="sourcePoint" />
            <mxPoint x="300" y="-230" as="targetPoint" />
          </mxGeometry>
        </mxCell>
        <mxCell id="_2EkybZ1yRrgaBxRLBCb-85" value="" style="endArrow=none;html=1;rounded=0;entryX=0.5;entryY=0;entryDx=0;entryDy=0;exitX=0;exitY=0.5;exitDx=0;exitDy=0;" edge="1" parent="1" source="_2EkybZ1yRrgaBxRLBCb-26" target="_2EkybZ1yRrgaBxRLBCb-4">
          <mxGeometry relative="1" as="geometry">
            <mxPoint x="360" y="-80" as="sourcePoint" />
            <mxPoint x="510" y="-80" as="targetPoint" />
          </mxGeometry>
        </mxCell>
        <mxCell id="_2EkybZ1yRrgaBxRLBCb-87" value="" style="endArrow=none;html=1;rounded=0;exitX=1;exitY=0;exitDx=0;exitDy=0;entryX=0.5;entryY=0;entryDx=0;entryDy=0;" edge="1" parent="1" source="_2EkybZ1yRrgaBxRLBCb-28" target="_2EkybZ1yRrgaBxRLBCb-4">
          <mxGeometry relative="1" as="geometry">
            <mxPoint x="170" y="-60.34" as="sourcePoint" />
            <mxPoint x="330" y="-60.34" as="targetPoint" />
            <Array as="points">
              <mxPoint x="200" y="-80" />
            </Array>
          </mxGeometry>
        </mxCell>
        <mxCell id="_2EkybZ1yRrgaBxRLBCb-89" value="" style="endArrow=none;html=1;rounded=0;exitX=0;exitY=0;exitDx=0;exitDy=0;entryX=0.5;entryY=0;entryDx=0;entryDy=0;" edge="1" parent="1" source="_2EkybZ1yRrgaBxRLBCb-29" target="_2EkybZ1yRrgaBxRLBCb-4">
          <mxGeometry relative="1" as="geometry">
            <mxPoint x="400" y="-80" as="sourcePoint" />
            <mxPoint x="560" y="-80" as="targetPoint" />
            <Array as="points">
              <mxPoint x="300" y="-80" />
            </Array>
          </mxGeometry>
        </mxCell>
        <mxCell id="_2EkybZ1yRrgaBxRLBCb-96" value="" style="endArrow=none;html=1;rounded=0;strokeColor=default;align=center;verticalAlign=middle;fontFamily=Helvetica;fontSize=11;fontColor=default;labelBackgroundColor=default;edgeStyle=orthogonalEdgeStyle;" edge="1" parent="1" source="_2EkybZ1yRrgaBxRLBCb-4">
          <mxGeometry relative="1" as="geometry">
            <mxPoint x="100" y="-160" as="sourcePoint" />
            <mxPoint x="250" y="-100" as="targetPoint" />
          </mxGeometry>
        </mxCell>
        <mxCell id="_2EkybZ1yRrgaBxRLBCb-106" value="" style="endArrow=none;html=1;rounded=0;strokeColor=default;align=center;verticalAlign=middle;fontFamily=Helvetica;fontSize=11;fontColor=default;labelBackgroundColor=default;exitX=1;exitY=0.5;exitDx=0;exitDy=0;" edge="1" parent="1" source="_2EkybZ1yRrgaBxRLBCb-24">
          <mxGeometry relative="1" as="geometry">
            <mxPoint x="80" y="150" as="sourcePoint" />
            <mxPoint x="250" y="200" as="targetPoint" />
          </mxGeometry>
        </mxCell>
        <mxCell id="_2EkybZ1yRrgaBxRLBCb-107" value="" style="endArrow=none;html=1;rounded=0;strokeColor=default;align=center;verticalAlign=middle;fontFamily=Helvetica;fontSize=11;fontColor=default;labelBackgroundColor=default;" edge="1" parent="1">
          <mxGeometry relative="1" as="geometry">
            <mxPoint x="120" y="120" as="sourcePoint" />
            <mxPoint x="250" y="200" as="targetPoint" />
          </mxGeometry>
        </mxCell>
        <mxCell id="_2EkybZ1yRrgaBxRLBCb-108" value="" style="endArrow=none;html=1;rounded=0;strokeColor=default;align=center;verticalAlign=middle;fontFamily=Helvetica;fontSize=11;fontColor=default;labelBackgroundColor=default;" edge="1" parent="1">
          <mxGeometry relative="1" as="geometry">
            <mxPoint x="120" y="170" as="sourcePoint" />
            <mxPoint x="250" y="200" as="targetPoint" />
          </mxGeometry>
        </mxCell>
        <mxCell id="_2EkybZ1yRrgaBxRLBCb-109" value="" style="endArrow=none;html=1;rounded=0;strokeColor=default;align=center;verticalAlign=middle;fontFamily=Helvetica;fontSize=11;fontColor=default;labelBackgroundColor=default;edgeStyle=orthogonalEdgeStyle;" edge="1" parent="1">
          <mxGeometry relative="1" as="geometry">
            <mxPoint x="120" y="220" as="sourcePoint" />
            <mxPoint x="200" y="220" as="targetPoint" />
          </mxGeometry>
        </mxCell>
        <mxCell id="_2EkybZ1yRrgaBxRLBCb-110" value="" style="endArrow=none;html=1;rounded=0;strokeColor=default;align=center;verticalAlign=middle;fontFamily=Helvetica;fontSize=11;fontColor=default;labelBackgroundColor=default;entryX=0.5;entryY=1;entryDx=0;entryDy=0;" edge="1" parent="1" source="_2EkybZ1yRrgaBxRLBCb-19" target="_2EkybZ1yRrgaBxRLBCb-1">
          <mxGeometry relative="1" as="geometry">
            <mxPoint x="120" y="270" as="sourcePoint" />
            <mxPoint x="280" y="270" as="targetPoint" />
          </mxGeometry>
        </mxCell>
        <mxCell id="_2EkybZ1yRrgaBxRLBCb-111" value="" style="endArrow=none;html=1;rounded=0;strokeColor=default;align=center;verticalAlign=middle;fontFamily=Helvetica;fontSize=11;fontColor=default;labelBackgroundColor=default;" edge="1" parent="1">
          <mxGeometry relative="1" as="geometry">
            <mxPoint x="120" y="320" as="sourcePoint" />
            <mxPoint x="250" y="240" as="targetPoint" />
          </mxGeometry>
        </mxCell>
        <mxCell id="_2EkybZ1yRrgaBxRLBCb-112" value="" style="endArrow=none;html=1;rounded=0;strokeColor=default;align=center;verticalAlign=middle;fontFamily=Helvetica;fontSize=11;fontColor=default;labelBackgroundColor=default;" edge="1" parent="1">
          <mxGeometry relative="1" as="geometry">
            <mxPoint x="120" y="370" as="sourcePoint" />
            <mxPoint x="250" y="240" as="targetPoint" />
          </mxGeometry>
        </mxCell>
        <mxCell id="_2EkybZ1yRrgaBxRLBCb-113" value="" style="endArrow=none;html=1;rounded=0;strokeColor=default;align=center;verticalAlign=middle;fontFamily=Helvetica;fontSize=11;fontColor=default;labelBackgroundColor=default;" edge="1" parent="1">
          <mxGeometry relative="1" as="geometry">
            <mxPoint x="250" y="240" as="sourcePoint" />
            <mxPoint x="250" y="370" as="targetPoint" />
          </mxGeometry>
        </mxCell>
        <mxCell id="_2EkybZ1yRrgaBxRLBCb-114" value="1..M" style="resizable=0;html=1;whiteSpace=wrap;align=left;verticalAlign=bottom;fontFamily=Helvetica;fontSize=11;fontColor=default;labelBackgroundColor=default;" connectable="0" vertex="1" parent="_2EkybZ1yRrgaBxRLBCb-113">
          <mxGeometry x="-1" relative="1" as="geometry">
            <mxPoint x="-30" y="50" as="offset" />
          </mxGeometry>
        </mxCell>
        <mxCell id="_2EkybZ1yRrgaBxRLBCb-116" value="" style="endArrow=none;html=1;rounded=0;strokeColor=default;align=center;verticalAlign=middle;fontFamily=Helvetica;fontSize=11;fontColor=default;labelBackgroundColor=default;entryX=0.5;entryY=0;entryDx=0;entryDy=0;" edge="1" parent="1" target="_2EkybZ1yRrgaBxRLBCb-5">
          <mxGeometry relative="1" as="geometry">
            <mxPoint x="250" y="430" as="sourcePoint" />
            <mxPoint x="410" y="430" as="targetPoint" />
          </mxGeometry>
        </mxCell>
        <mxCell id="_2EkybZ1yRrgaBxRLBCb-117" value="1..M" style="resizable=0;html=1;whiteSpace=wrap;align=right;verticalAlign=bottom;fontFamily=Helvetica;fontSize=11;fontColor=default;labelBackgroundColor=default;" connectable="0" vertex="1" parent="_2EkybZ1yRrgaBxRLBCb-116">
          <mxGeometry x="1" relative="1" as="geometry">
            <mxPoint as="offset" />
          </mxGeometry>
        </mxCell>
        <mxCell id="_2EkybZ1yRrgaBxRLBCb-118" value="" style="endArrow=none;html=1;rounded=0;strokeColor=default;align=center;verticalAlign=middle;fontFamily=Helvetica;fontSize=11;fontColor=default;labelBackgroundColor=default;entryX=0.5;entryY=0;entryDx=0;entryDy=0;" edge="1" parent="1" target="_2EkybZ1yRrgaBxRLBCb-39">
          <mxGeometry relative="1" as="geometry">
            <mxPoint x="250" y="490" as="sourcePoint" />
            <mxPoint x="410" y="490" as="targetPoint" />
          </mxGeometry>
        </mxCell>
        <mxCell id="_2EkybZ1yRrgaBxRLBCb-119" value="" style="endArrow=none;html=1;rounded=0;strokeColor=default;align=center;verticalAlign=middle;fontFamily=Helvetica;fontSize=11;fontColor=default;labelBackgroundColor=default;entryX=0.5;entryY=1;entryDx=0;entryDy=0;" edge="1" parent="1" target="_2EkybZ1yRrgaBxRLBCb-5">
          <mxGeometry relative="1" as="geometry">
            <mxPoint x="350" y="510" as="sourcePoint" />
            <mxPoint x="250" y="492" as="targetPoint" />
          </mxGeometry>
        </mxCell>
        <mxCell id="_2EkybZ1yRrgaBxRLBCb-120" value="" style="endArrow=none;html=1;rounded=0;strokeColor=default;align=center;verticalAlign=middle;fontFamily=Helvetica;fontSize=11;fontColor=default;labelBackgroundColor=default;" edge="1" parent="1">
          <mxGeometry relative="1" as="geometry">
            <mxPoint x="140" y="510" as="sourcePoint" />
            <mxPoint x="250" y="490" as="targetPoint" />
          </mxGeometry>
        </mxCell>
        <mxCell id="_2EkybZ1yRrgaBxRLBCb-123" value="" style="endArrow=none;html=1;rounded=0;strokeColor=default;align=center;verticalAlign=middle;fontFamily=Helvetica;fontSize=11;fontColor=default;labelBackgroundColor=default;edgeStyle=orthogonalEdgeStyle;exitX=0.5;exitY=0;exitDx=0;exitDy=0;entryX=0.5;entryY=1;entryDx=0;entryDy=0;" edge="1" parent="1" source="_2EkybZ1yRrgaBxRLBCb-15" target="_2EkybZ1yRrgaBxRLBCb-6">
          <mxGeometry relative="1" as="geometry">
            <mxPoint x="515" y="360" as="sourcePoint" />
            <mxPoint x="540" y="380" as="targetPoint" />
          </mxGeometry>
        </mxCell>
        <mxCell id="_2EkybZ1yRrgaBxRLBCb-124" value="1..1" style="resizable=0;html=1;whiteSpace=wrap;align=right;verticalAlign=bottom;fontFamily=Helvetica;fontSize=11;fontColor=default;labelBackgroundColor=default;" connectable="0" vertex="1" parent="_2EkybZ1yRrgaBxRLBCb-123">
          <mxGeometry x="1" relative="1" as="geometry">
            <mxPoint y="20" as="offset" />
          </mxGeometry>
        </mxCell>
        <mxCell id="_2EkybZ1yRrgaBxRLBCb-125" value="" style="endArrow=none;html=1;rounded=0;strokeColor=default;align=center;verticalAlign=middle;fontFamily=Helvetica;fontSize=11;fontColor=default;labelBackgroundColor=default;entryX=0;entryY=0.5;entryDx=0;entryDy=0;" edge="1" parent="1" target="_2EkybZ1yRrgaBxRLBCb-15">
          <mxGeometry relative="1" as="geometry">
            <mxPoint x="302.04" y="468.26" as="sourcePoint" />
            <mxPoint x="400.00000000000006" y="369.9999999999998" as="targetPoint" />
          </mxGeometry>
        </mxCell>
        <mxCell id="_2EkybZ1yRrgaBxRLBCb-126" value="1..M" style="resizable=0;html=1;whiteSpace=wrap;align=right;verticalAlign=bottom;fontFamily=Helvetica;fontSize=11;fontColor=default;labelBackgroundColor=default;" connectable="0" vertex="1" parent="_2EkybZ1yRrgaBxRLBCb-125">
          <mxGeometry x="1" relative="1" as="geometry">
            <mxPoint as="offset" />
          </mxGeometry>
        </mxCell>
        <mxCell id="_2EkybZ1yRrgaBxRLBCb-127" value="" style="endArrow=none;html=1;rounded=0;strokeColor=default;align=center;verticalAlign=middle;fontFamily=Helvetica;fontSize=11;fontColor=default;labelBackgroundColor=default;entryX=0.5;entryY=1;entryDx=0;entryDy=0;" edge="1" parent="1" target="_2EkybZ1yRrgaBxRLBCb-38">
          <mxGeometry relative="1" as="geometry">
            <mxPoint x="590" y="340" as="sourcePoint" />
            <mxPoint x="750" y="340" as="targetPoint" />
          </mxGeometry>
        </mxCell>
        <mxCell id="_2EkybZ1yRrgaBxRLBCb-128" value="" style="endArrow=none;html=1;rounded=0;strokeColor=default;align=center;verticalAlign=middle;fontFamily=Helvetica;fontSize=11;fontColor=default;labelBackgroundColor=default;edgeStyle=orthogonalEdgeStyle;" edge="1" parent="1">
          <mxGeometry relative="1" as="geometry">
            <mxPoint x="590" y="340" as="sourcePoint" />
            <mxPoint x="620" y="340" as="targetPoint" />
          </mxGeometry>
        </mxCell>
        <mxCell id="_2EkybZ1yRrgaBxRLBCb-129" value="" style="endArrow=none;html=1;rounded=0;strokeColor=default;align=center;verticalAlign=middle;fontFamily=Helvetica;fontSize=11;fontColor=default;labelBackgroundColor=default;entryX=0.5;entryY=0;entryDx=0;entryDy=0;" edge="1" parent="1" target="_2EkybZ1yRrgaBxRLBCb-37">
          <mxGeometry relative="1" as="geometry">
            <mxPoint x="590" y="340" as="sourcePoint" />
            <mxPoint x="750" y="340" as="targetPoint" />
          </mxGeometry>
        </mxCell>
        <mxCell id="_2EkybZ1yRrgaBxRLBCb-130" value="Improve" style="shape=rhombus;perimeter=rhombusPerimeter;whiteSpace=wrap;html=1;align=center;fontFamily=Helvetica;fontSize=11;fontColor=default;labelBackgroundColor=default;" vertex="1" parent="1">
          <mxGeometry x="342.5" y="290" width="105" height="60" as="geometry" />
        </mxCell>
        <mxCell id="_2EkybZ1yRrgaBxRLBCb-132" value="" style="endArrow=none;html=1;rounded=0;strokeColor=default;align=center;verticalAlign=middle;fontFamily=Helvetica;fontSize=11;fontColor=default;labelBackgroundColor=default;entryX=0.5;entryY=0;entryDx=0;entryDy=0;" edge="1" parent="1" target="_2EkybZ1yRrgaBxRLBCb-130">
          <mxGeometry relative="1" as="geometry">
            <mxPoint x="250" y="240" as="sourcePoint" />
            <mxPoint x="410" y="240" as="targetPoint" />
          </mxGeometry>
        </mxCell>
        <mxCell id="_2EkybZ1yRrgaBxRLBCb-133" value="1..M" style="resizable=0;html=1;whiteSpace=wrap;align=right;verticalAlign=bottom;fontFamily=Helvetica;fontSize=11;fontColor=default;labelBackgroundColor=default;" connectable="0" vertex="1" parent="_2EkybZ1yRrgaBxRLBCb-132">
          <mxGeometry x="1" relative="1" as="geometry">
            <mxPoint x="-25" y="10" as="offset" />
          </mxGeometry>
        </mxCell>
        <mxCell id="_2EkybZ1yRrgaBxRLBCb-134" value="" style="endArrow=none;html=1;rounded=0;strokeColor=default;align=center;verticalAlign=middle;fontFamily=Helvetica;fontSize=11;fontColor=default;labelBackgroundColor=default;exitX=1;exitY=0.5;exitDx=0;exitDy=0;entryX=-0.014;entryY=0.617;entryDx=0;entryDy=0;entryPerimeter=0;" edge="1" parent="1" source="_2EkybZ1yRrgaBxRLBCb-130" target="_2EkybZ1yRrgaBxRLBCb-6">
          <mxGeometry relative="1" as="geometry">
            <mxPoint x="450" y="320" as="sourcePoint" />
            <mxPoint x="610" y="320" as="targetPoint" />
          </mxGeometry>
        </mxCell>
        <mxCell id="_2EkybZ1yRrgaBxRLBCb-135" value="1..1" style="resizable=0;html=1;whiteSpace=wrap;align=right;verticalAlign=bottom;fontFamily=Helvetica;fontSize=11;fontColor=default;labelBackgroundColor=default;" connectable="0" vertex="1" parent="_2EkybZ1yRrgaBxRLBCb-134">
          <mxGeometry x="1" relative="1" as="geometry">
            <mxPoint x="-9" y="15" as="offset" />
          </mxGeometry>
        </mxCell>
        <mxCell id="_2EkybZ1yRrgaBxRLBCb-136" value="" style="endArrow=none;html=1;rounded=0;strokeColor=default;align=center;verticalAlign=middle;fontFamily=Helvetica;fontSize=11;fontColor=default;labelBackgroundColor=default;edgeStyle=orthogonalEdgeStyle;" edge="1" parent="1" source="_2EkybZ1yRrgaBxRLBCb-2">
          <mxGeometry relative="1" as="geometry">
            <mxPoint x="590" y="220" as="sourcePoint" />
            <mxPoint x="670" y="220" as="targetPoint" />
          </mxGeometry>
        </mxCell>
        <mxCell id="_2EkybZ1yRrgaBxRLBCb-137" value="1..1" style="resizable=0;html=1;whiteSpace=wrap;align=right;verticalAlign=bottom;fontFamily=Helvetica;fontSize=11;fontColor=default;labelBackgroundColor=default;" connectable="0" vertex="1" parent="_2EkybZ1yRrgaBxRLBCb-136">
          <mxGeometry x="1" relative="1" as="geometry" />
        </mxCell>
        <mxCell id="_2EkybZ1yRrgaBxRLBCb-138" value="" style="endArrow=none;html=1;rounded=0;strokeColor=default;align=center;verticalAlign=middle;fontFamily=Helvetica;fontSize=11;fontColor=default;labelBackgroundColor=default;edgeStyle=orthogonalEdgeStyle;" edge="1" parent="1">
          <mxGeometry relative="1" as="geometry">
            <mxPoint x="760" y="220" as="sourcePoint" />
            <mxPoint x="810" y="220" as="targetPoint" />
          </mxGeometry>
        </mxCell>
        <mxCell id="_2EkybZ1yRrgaBxRLBCb-139" value="1..1" style="resizable=0;html=1;whiteSpace=wrap;align=right;verticalAlign=bottom;fontFamily=Helvetica;fontSize=11;fontColor=default;labelBackgroundColor=default;" connectable="0" vertex="1" parent="_2EkybZ1yRrgaBxRLBCb-138">
          <mxGeometry x="1" relative="1" as="geometry" />
        </mxCell>
        <mxCell id="_2EkybZ1yRrgaBxRLBCb-140" value="" style="endArrow=none;html=1;rounded=0;strokeColor=default;align=center;verticalAlign=middle;fontFamily=Helvetica;fontSize=11;fontColor=default;labelBackgroundColor=default;entryX=0;entryY=0.5;entryDx=0;entryDy=0;" edge="1" parent="1" source="_2EkybZ1yRrgaBxRLBCb-3" target="_2EkybZ1yRrgaBxRLBCb-34">
          <mxGeometry relative="1" as="geometry">
            <mxPoint x="910" y="220" as="sourcePoint" />
            <mxPoint x="1070" y="220" as="targetPoint" />
          </mxGeometry>
        </mxCell>
        <mxCell id="_2EkybZ1yRrgaBxRLBCb-141" value="" style="endArrow=none;html=1;rounded=0;strokeColor=default;align=center;verticalAlign=middle;fontFamily=Helvetica;fontSize=11;fontColor=default;labelBackgroundColor=default;entryX=0;entryY=0.5;entryDx=0;entryDy=0;" edge="1" parent="1" target="_2EkybZ1yRrgaBxRLBCb-35">
          <mxGeometry relative="1" as="geometry">
            <mxPoint x="900" y="240" as="sourcePoint" />
            <mxPoint x="960" y="240" as="targetPoint" />
          </mxGeometry>
        </mxCell>
        <mxCell id="_2EkybZ1yRrgaBxRLBCb-142" value="" style="endArrow=none;html=1;rounded=0;strokeColor=default;align=center;verticalAlign=middle;fontFamily=Helvetica;fontSize=11;fontColor=default;labelBackgroundColor=default;exitX=0.5;exitY=0;exitDx=0;exitDy=0;entryX=0.5;entryY=1;entryDx=0;entryDy=0;" edge="1" parent="1" source="_2EkybZ1yRrgaBxRLBCb-2" target="_2EkybZ1yRrgaBxRLBCb-30">
          <mxGeometry relative="1" as="geometry">
            <mxPoint x="530" y="200" as="sourcePoint" />
            <mxPoint x="540" y="112" as="targetPoint" />
            <Array as="points">
              <mxPoint x="540" y="150" />
            </Array>
          </mxGeometry>
        </mxCell>
        <mxCell id="_2EkybZ1yRrgaBxRLBCb-143" value="" style="endArrow=none;html=1;rounded=0;strokeColor=default;align=center;verticalAlign=middle;fontFamily=Helvetica;fontSize=11;fontColor=default;labelBackgroundColor=default;exitX=0.5;exitY=1;exitDx=0;exitDy=0;entryX=0.5;entryY=0;entryDx=0;entryDy=0;" edge="1" parent="1" source="_2EkybZ1yRrgaBxRLBCb-31" target="_2EkybZ1yRrgaBxRLBCb-2">
          <mxGeometry relative="1" as="geometry">
            <mxPoint x="460" y="170" as="sourcePoint" />
            <mxPoint x="620" y="170" as="targetPoint" />
          </mxGeometry>
        </mxCell>
        <mxCell id="_2EkybZ1yRrgaBxRLBCb-144" value="" style="endArrow=none;html=1;rounded=0;strokeColor=default;align=center;verticalAlign=middle;fontFamily=Helvetica;fontSize=11;fontColor=default;labelBackgroundColor=default;exitX=0.5;exitY=0;exitDx=0;exitDy=0;entryX=0;entryY=0.5;entryDx=0;entryDy=0;" edge="1" parent="1" source="_2EkybZ1yRrgaBxRLBCb-2" target="_2EkybZ1yRrgaBxRLBCb-32">
          <mxGeometry relative="1" as="geometry">
            <mxPoint x="550" y="50" as="sourcePoint" />
            <mxPoint x="710" y="50" as="targetPoint" />
          </mxGeometry>
        </mxCell>
        <mxCell id="_2EkybZ1yRrgaBxRLBCb-145" value="" style="endArrow=none;html=1;rounded=0;strokeColor=default;align=center;verticalAlign=middle;fontFamily=Helvetica;fontSize=11;fontColor=default;labelBackgroundColor=default;exitX=0.5;exitY=0;exitDx=0;exitDy=0;entryX=0;entryY=0.5;entryDx=0;entryDy=0;" edge="1" parent="1" source="_2EkybZ1yRrgaBxRLBCb-2" target="_2EkybZ1yRrgaBxRLBCb-33">
          <mxGeometry relative="1" as="geometry">
            <mxPoint x="360" y="110" as="sourcePoint" />
            <mxPoint x="520" y="110" as="targetPoint" />
          </mxGeometry>
        </mxCell>
      </root>
    </mxGraphModel>
  </diagram>
</mxfile>
